 <svg  version="1.0" xmlns="http://www.w3.org/2000/svg"  width="885.000000pt" height="621.000000pt" viewBox="0 0 885.000000 621.000000"  preserveAspectRatio="xMidYMid meet">  <g transform="translate(0.000000,621.000000) scale(0.100000,-0.100000)" fill="#2c8aba" stroke="none"> <path d="M8780 3105 l0 -3105 23 0 22 0 -3 3105 c-2 3096 -2 3105 -22 3105 -20 0 -20 -8 -20 -3105z"/> <path d="M1125 4146 c-11 -9 -28 -16 -37 -16 -51 -1 -258 -173 -258 -215 0 -7 -7 -18 -15 -25 -8 -7 -15 -22 -15 -34 0 -11 -10 -39 -23 -61 -17 -29 -32 -42 -59 -50 -21 -6 -43 -16 -50 -23 -6 -6 -17 -12 -23 -12 -13 0 -60 -52 -90 -100 -12 -19 -29 -65 -38 -102 -16 -65 -16 -71 2 -138 34 -123 104 -194 239 -244 36 -14 103 -16 447 -16 l405 0 6 26 c4 14 2 30 -4 36 -7 7 -7 19 0 39 19 56 34 54 -394 50 -353 -3 -399 -2 -419 13 -13 9 -31 16 -39 16 -20 0 -72 55 -88 93 -42 98 48 237 152 237 28 0 41 7 65 37 17 21 31 49 31 64 0 24 23 82 53 134 27 46 124 125 155 125 11 0 25 7 33 16 10 13 33 15 123 13 l111 -3 3 34 c2 19 10 39 18 45 8 5 16 24 17 40 l2 30 -145 3 c-117 2 -149 0 -165 -12z m260 -61 c0 -6 -48 -11 -120 -13 -92 -2 -121 -6 -128 -17 -4 -8 -16 -15 -26 -15 -10 0 -24 -7 -31 -15 -7 -8 -17 -15 -22 -15 -34 0 -168 -151 -168 -190 0 -10 -7 -23 -15 -30 -8 -7 -15 -27 -15 -45 0 -37 -22 -60 -67 -70 -18 -3 -35 -11 -38 -16 -4 -5 -14 -9 -24 -9 -29 0 -103 -92 -118 -146 -10 -40 -10 -60 0 -109 10 -51 20 -67 62 -110 35 -34 65 -54 95 -62 31 -9 163 -13 415 -15 213 -2 376 -7 385 -13 29 -18 -42 -23 -401 -24 -298 -1 -358 1 -375 14 -10 8 -32 15 -47 15 -15 0 -33 5 -40 10 -7 6 -25 20 -40 31 -70 52 -108 164 -89 256 6 31 18 64 27 73 8 9 15 22 15 28 0 15 83 82 102 82 9 0 21 7 28 15 7 8 21 15 30 15 35 0 50 12 50 40 0 25 18 74 41 110 5 8 13 25 18 36 14 33 116 129 150 144 17 7 31 16 31 21 0 5 14 9 31 9 17 0 37 7 46 15 12 13 37 15 127 13 65 -2 111 -7 111 -13z"/> <path d="M1533 4001 c20 -15 51 -45 69 -66 91 -106 85 -101 107 -87 12 6 28 12 36 12 8 0 15 7 15 15 0 13 -7 15 -35 9 -33 -6 -39 -3 -75 37 -22 24 -40 47 -40 52 0 4 -4 7 -9 7 -6 0 -22 11 -37 25 -15 14 -36 25 -47 25 -16 0 -13 -5 16 -29z"/> <path d="M1777 3913 c-17 -17 -2 -23 53 -23 57 0 78 11 44 24 -21 8 -89 8 -97 -1z"/> <path d="M1900 3881 c0 -5 16 -19 35 -32 19 -13 35 -31 35 -40 0 -9 7 -22 14 -29 8 -6 16 -30 18 -53 l3 -42 64 -3 c35 -2 73 -10 85 -18 11 -7 27 -14 34 -14 26 0 112 -100 112 -129 0 -15 7 -36 15 -47 13 -18 14 -15 15 29 0 33 -4 49 -15 53 -8 4 -15 12 -15 19 0 28 -91 105 -123 105 -8 0 -20 7 -27 15 -8 10 -31 15 -66 15 -45 0 -54 3 -54 18 0 10 -7 27 -15 38 -8 10 -15 27 -15 37 0 39 -100 117 -100 78z"/> <path d="M4400 3615 c-8 -10 -10 -34 -5 -80 6 -53 11 -65 25 -65 28 0 39 22 41 84 2 41 -2 60 -12 67 -20 13 -35 11 -49 -6z"/> <path d="M6143 3615 c-15 -11 -15 -15 5 -43 20 -27 22 -43 22 -144 0 -85 -4 -119 -15 -135 -8 -12 -12 -28 -9 -37 8 -21 73 -21 100 -2 16 13 17 18 6 36 -7 12 -16 43 -19 69 -6 54 11 81 52 81 36 0 47 -31 43 -123 l-3 -82 35 -3 c53 -4 67 9 52 51 -7 18 -12 51 -12 73 0 96 -45 159 -97 135 -13 -6 -35 -11 -48 -11 -24 0 -24 2 -22 67 l2 67 -38 7 c-23 4 -44 1 -54 -6z"/> <path d="M3067 3596 c-14 -21 -14 -26 0 -45 10 -15 23 -21 40 -19 33 4 48 27 39 61 -9 36 -57 38 -79 3z"/> <path d="M2564 3586 c-3 -9 1 -34 10 -55 14 -35 14 -51 1 -148 -8 -59 -15 -113 -15 -120 0 -17 36 -26 60 -13 19 10 19 17 13 115 -5 87 -4 105 8 105 8 0 21 -17 30 -38 8 -20 23 -54 32 -75 9 -21 17 -46 17 -57 0 -19 25 -50 40 -50 15 0 51 80 81 178 11 34 33 43 43 16 10 -26 7 -106 -6 -141 -15 -42 -3 -53 59 -53 48 0 62 14 39 39 -24 26 -27 243 -3 269 26 28 22 32 -37 32 -49 0 -57 -3 -75 -29 -12 -16 -21 -33 -21 -38 0 -12 -57 -124 -70 -137 -8 -8 -23 20 -65 124 -25 61 -43 78 -92 86 -34 5 -44 3 -49 -10z"/> <path d="M4875 3586 c-15 -10 -14 -15 9 -49 14 -21 26 -48 26 -60 0 -13 5 -28 12 -35 13 -13 36 -85 45 -140 7 -44 43 -69 72 -50 12 7 21 20 21 29 0 9 7 33 15 52 8 20 15 50 15 66 0 16 5 33 11 36 13 9 49 -23 49 -44 0 -9 9 -43 19 -76 14 -45 24 -61 39 -63 36 -5 62 16 62 49 0 17 6 45 13 62 8 18 22 57 32 87 10 30 27 71 37 90 17 33 17 36 1 47 -19 15 -63 7 -80 -14 -7 -9 -10 -35 -7 -66 5 -52 -18 -121 -40 -119 -15 1 -46 93 -46 134 0 44 -21 68 -59 68 -32 0 -56 -39 -45 -72 5 -17 -11 -110 -23 -131 -3 -5 -16 2 -29 14 -21 19 -24 32 -24 89 0 38 -5 73 -12 82 -17 20 -92 30 -113 14z"/> <path d="M7235 3592 c-12 -8 -45 -102 -45 -127 0 -9 -6 -29 -14 -43 -8 -15 -20 -42 -27 -61 -7 -18 -23 -46 -35 -61 -15 -17 -21 -34 -17 -48 4 -18 13 -22 48 -22 47 0 59 14 49 55 -3 13 -3 33 1 44 5 18 15 21 60 21 62 0 79 -17 69 -68 -8 -39 19 -55 73 -44 41 9 53 30 30 54 -17 17 -57 105 -57 127 0 9 -7 25 -15 35 -8 11 -15 27 -15 36 0 21 -36 91 -52 102 -16 10 -40 10 -53 0z m53 -138 c7 -25 10 -50 7 -55 -4 -5 -22 -9 -41 -9 -28 0 -34 4 -34 21 0 29 30 89 44 89 7 0 17 -21 24 -46z"/> <path d="M1884 3575 c-4 -9 -4 -29 0 -45 5 -28 3 -30 -25 -30 -17 0 -32 6 -35 15 -11 29 -60 17 -108 -26 -47 -43 -60 -80 -32 -96 8 -4 16 -26 18 -47 3 -37 4 -39 20 -23 18 19 13 56 -8 64 -24 9 -15 48 19 81 35 34 67 41 86 18 23 -27 50 -26 71 4 11 15 20 38 20 49 0 19 6 21 58 21 60 0 78 -13 92 -65 7 -25 52 -32 70 -11 7 9 24 16 39 16 36 0 85 -55 77 -86 -4 -13 -2 -25 3 -28 5 -3 11 11 13 32 4 32 0 42 -32 75 -42 41 -91 51 -109 20 -15 -28 -59 1 -63 41 l-3 31 -83 3 c-67 2 -83 0 -88 -13z"/> <path d="M5970 3533 c-11 -21 -26 -46 -32 -55 -10 -14 -9 -21 5 -36 13 -14 17 -37 17 -90 0 -73 7 -89 52 -113 16 -8 29 -7 59 7 45 20 46 34 4 46 -37 10 -45 23 -45 84 0 44 4 54 25 68 28 18 34 56 9 56 -8 0 -22 16 -30 35 -18 45 -39 44 -64 -2z"/> <path d="M3232 3488 c-16 -16 -15 -39 3 -62 20 -26 19 -76 -1 -126 -21 -53 -12 -62 57 -58 44 2 54 7 57 22 3 11 -3 25 -12 32 -13 9 -16 25 -14 70 l3 59 45 5 c46 5 59 21 41 49 -8 12 -16 13 -47 3 -30 -9 -41 -8 -58 3 -25 18 -58 19 -74 3z"/> <path d="M3459 3484 c-10 -12 -10 -20 -1 -35 7 -10 12 -46 12 -80 0 -65 10 -94 44 -121 26 -22 44 -22 83 -3 25 12 36 13 56 4 50 -22 101 13 67 47 -5 5 -10 52 -12 104 l-3 95 -40 0 c-39 0 -40 0 -38 -35 1 -19 5 -56 9 -81 8 -64 -7 -91 -49 -87 l-32 3 -3 85 c-2 60 -7 89 -19 102 -20 22 -56 23 -74 2z"/> <path d="M3786 3484 c-20 -19 -20 -28 -1 -44 22 -18 21 -127 -1 -152 -27 -29 -2 -50 55 -46 51 3 50 -1 35 109 -8 64 7 91 49 87 26 -2 32 -9 40 -37 5 -22 4 -51 -3 -83 -17 -67 -10 -78 45 -78 48 0 69 20 46 43 -6 6 -11 42 -11 81 0 59 -4 74 -26 103 -29 38 -68 44 -110 17 -23 -15 -26 -15 -43 0 -22 20 -55 21 -75 0z"/> <path d="M4147 3483 c-36 -19 -44 -40 -24 -60 14 -14 18 -14 43 6 14 11 34 21 43 21 17 0 41 -18 41 -31 0 -18 -34 -39 -61 -39 -16 0 -43 -10 -59 -22 -59 -43 -28 -127 48 -128 17 0 32 4 32 9 0 18 33 21 57 5 50 -32 102 9 63 51 -16 17 -20 35 -20 96 0 72 -1 74 -31 92 -36 20 -93 21 -132 0z m103 -158 c0 -32 -34 -51 -66 -36 -13 6 -24 15 -24 20 0 19 32 41 61 41 24 0 29 -4 29 -25z"/> <path d="M4538 3477 c-40 -33 -43 -59 -12 -96 14 -17 33 -31 41 -31 18 0 73 -38 73 -50 0 -5 -9 -14 -21 -20 -17 -9 -26 -7 -55 15 -38 29 -74 27 -74 -5 0 -31 52 -60 107 -60 62 0 106 32 106 78 0 40 -16 58 -75 84 -38 16 -48 25 -48 44 0 28 30 33 50 9 16 -20 59 -19 67 0 19 52 -105 77 -159 32z"/> <path d="M5424 3466 c-38 -33 -39 -36 -39 -99 0 -70 14 -95 67 -123 35 -18 67 -18 112 1 26 11 36 21 34 33 -3 14 -13 16 -56 14 -40 -3 -58 0 -73 14 -31 28 -23 41 31 47 80 10 105 26 103 67 -2 47 -43 80 -99 80 -32 0 -49 -7 -80 -34z m97 -16 c44 -24 5 -79 -47 -66 -28 7 -31 32 -6 57 20 21 27 22 53 9z"/> <path d="M5693 3483 c-23 -12 -33 -24 -33 -39 0 -34 14 -37 59 -13 45 23 71 20 71 -9 0 -26 -20 -42 -54 -42 -54 -1 -101 -55 -85 -99 19 -50 69 -65 114 -35 23 15 27 15 50 0 32 -21 48 -20 70 4 16 18 17 22 3 38 -10 11 -17 43 -20 91 -3 67 -6 76 -33 97 -36 28 -93 31 -142 7z m107 -151 c0 -11 -9 -27 -19 -36 -26 -23 -61 -13 -61 18 0 30 7 36 47 36 25 0 33 -4 33 -18z"/> <path d="M6507 3469 c-36 -30 -37 -32 -37 -97 0 -72 11 -93 62 -125 33 -21 65 -21 109 -3 44 18 51 26 38 42 -7 8 -27 11 -62 7 -44 -4 -55 -2 -70 15 -26 28 -16 38 43 46 28 4 62 12 76 18 23 11 25 17 20 48 -13 81 -108 108 -179 49z m107 -31 c17 -28 -4 -53 -45 -53 -43 0 -52 30 -18 57 28 21 48 20 63 -4z"/> <path d="M6758 3489 c-22 -12 -24 -48 -3 -55 21 -9 21 -117 0 -134 -9 -7 -15 -23 -13 -34 3 -19 10 -21 63 -21 50 0 60 3 63 18 2 11 -6 28 -17 38 -23 22 -28 77 -11 110 8 14 21 19 56 19 53 0 68 21 37 52 -19 19 -22 19 -52 4 -28 -15 -34 -15 -53 -1 -26 17 -46 19 -70 4z"/> <path d="M7492 3488 c-16 -16 -15 -33 2 -47 9 -7 16 -46 21 -111 6 -92 5 -103 -15 -135 -32 -52 -22 -65 50 -65 52 0 60 2 60 19 0 10 -7 22 -16 25 -10 4 -14 16 -12 38 3 32 5 33 52 35 52 2 78 19 102 65 27 52 13 133 -31 170 -22 19 -85 24 -101 8 -8 -8 -19 -8 -38 0 -36 13 -59 13 -74 -2z m178 -122 c0 -56 -3 -64 -24 -75 -13 -7 -33 -10 -45 -6 -19 6 -21 14 -21 78 0 65 2 73 23 83 16 7 28 6 45 -4 19 -12 22 -23 22 -76z"/> <path d="M7808 3489 c-22 -12 -23 -32 -3 -49 12 -10 15 -38 15 -130 0 -92 -3 -120 -15 -130 -8 -7 -15 -21 -15 -31 0 -16 8 -19 59 -19 70 0 92 17 61 45 -26 24 -26 62 0 70 11 3 24 4 28 1 19 -11 79 15 101 45 16 22 23 45 24 85 1 49 -2 57 -33 89 -26 27 -42 35 -70 35 -20 0 -42 -6 -48 -12 -10 -10 -17 -10 -32 0 -24 14 -49 15 -72 1z m155 -54 c39 -38 27 -140 -18 -151 -13 -3 -33 -1 -44 6 -18 9 -21 20 -21 72 0 46 4 64 18 74 23 18 47 17 65 -1z"/> <path d="M3050 3475 c-10 -13 -9 -19 5 -35 14 -15 18 -35 17 -77 -1 -31 -6 -61 -12 -67 -12 -12 -14 -53 -2 -59 4 -3 29 -3 55 0 54 6 68 24 43 52 -12 13 -16 39 -16 109 l0 92 -39 0 c-22 0 -44 -6 -51 -15z"/> <path d="M2306 3397 c-9 -35 -7 -47 9 -47 10 0 15 10 15 29 0 37 -16 49 -24 18z"/> <path d="M1889 3347 c-35 -31 -69 -90 -69 -119 0 -8 7 -23 15 -34 8 -10 15 -25 15 -32 0 -18 40 -51 61 -52 9 0 19 -7 23 -15 7 -19 69 -20 85 -1 7 8 23 17 36 20 36 9 65 65 65 124 0 47 -3 54 -46 96 -42 43 -49 46 -97 46 -44 0 -57 -5 -88 -33z m168 -29 c29 -28 33 -38 33 -85 0 -50 -3 -57 -37 -88 -28 -25 -47 -35 -72 -35 -37 0 -101 34 -101 55 0 7 -7 18 -15 25 -18 15 -20 66 -2 85 6 8 23 28 37 45 21 26 30 30 74 30 43 0 55 -5 83 -32z"/> <path d="M2215 3368 c-9 -24 1 -48 20 -48 19 0 19 20 1 46 -14 18 -15 18 -21 2z"/> <path d="M2270 3312 c0 -11 51 -35 58 -28 2 3 2 12 -1 21 -7 15 -57 22 -57 7z"/> <path d="M2313 3239 c9 -34 -9 -69 -36 -69 -27 0 -67 -26 -67 -44 0 -8 6 -19 14 -25 26 -22 26 -63 -1 -98 -31 -41 -55 -48 -87 -28 -32 21 -70 16 -75 -10 -2 -11 -9 -24 -17 -28 -8 -4 -14 -15 -14 -22 0 -12 -14 -15 -60 -15 -60 0 -60 0 -60 29 0 52 -60 83 -90 46 -7 -8 -21 -15 -31 -15 -26 0 -89 64 -89 89 0 12 -6 21 -15 21 -32 0 -16 -50 31 -95 48 -47 82 -57 104 -30 7 8 23 15 36 15 20 0 24 -5 24 -28 0 -53 17 -63 100 -60 l75 3 9 38 c11 43 51 63 68 33 15 -26 50 -18 94 22 54 48 61 73 35 118 -26 43 -21 54 25 54 39 0 50 18 52 83 1 28 -3 37 -14 37 -12 0 -15 -6 -11 -21z"/> <path d="M1710 3110 c0 -18 4 -29 10 -25 6 3 10 15 10 25 0 10 -4 22 -10 25 -6 4 -10 -7 -10 -25z"/> </g> </svg> 